<svg xmlns="http://www.w3.org/2000/svg" viewBox="-610 -1350 4793 1960" role="img" aria-labelledby="t d" fill="currentColor">
  <title id="t">אלומה</title>
  <desc id="d">ALUMA lockup, candidate b-1 Threshold: wordmark in IBM Plex Sans Hebrew Bold, outlined, with the beam mark (solid parallelogram 3:4 leaning 14 degrees) standing on the baseline at the inline end. Clear space equal to the height of alef is included in the viewBox.</desc>
  <path id="wordmark-he" d="M366 -413Q366 -443 349 -460Q332 -477 302 -477H0V-610H332Q419 -610 467.5 -561Q516 -512 516 -431V0H366ZM0 -334H150V0H0Z M700 -407 664 -610H815L836 -487H842Q852 -513 866.5 -537.5Q881 -562 903 -580.5Q925 -599 955 -610.5Q985 -622 1025 -622Q1061 -622 1094 -610.5Q1127 -599 1152 -570.5Q1177 -542 1192 -495Q1207 -448 1207 -376V0H918V-133H1057V-350Q1057 -390 1051 -417Q1045 -444 1033.5 -460Q1022 -476 1005 -482.5Q988 -489 966 -489Q865 -489 845 -378L779 0H629Z M1347 -610H1497V0H1347Z M1908 -477H1592V-740H1742V-610H2066V-470L1886 0H1726Z M2156 -218Q2156 -251 2162.5 -275Q2169 -299 2182.5 -317Q2196 -335 2216 -348.5Q2236 -362 2263 -374L2283 -383L2146 -610H2324L2495 -321L2548 -346V-610H2696V-392Q2696 -359 2689.5 -335Q2683 -311 2669.5 -293Q2656 -275 2636 -261.5Q2616 -248 2589 -236L2570 -227L2707 0H2529L2358 -289L2304 -264V0H2156Z"/>
  <path id="mark" d="M2963,0H3420.5L3573,-610H3115.5Z"/>
</svg>
